<svg xmlns="http://www.w3.org/2000/svg" width="750" height="920" xml:space="preserve"><g><path fill="#FFD161" d="M178.511 221.92c-.793 0-1.55-.454-1.901-1.223l-16.975-37.273-15.302-6.912a2.087 2.087 0 0 1 1.718-3.804l16.017 7.235a2.08 2.08 0 0 1 1.04 1.037l17.3 37.987a2.086 2.086 0 0 1-1.897 2.953zM333.489 221.92c.793 0 1.55-.454 1.901-1.223l16.975-37.273 15.302-6.912a2.087 2.087 0 0 0-1.718-3.804l-16.017 7.235a2.08 2.08 0 0 0-1.04 1.037l-17.3 37.987a2.086 2.086 0 0 0 1.897 2.953z"/><path fill="#8A532D" d="m204.311 196.326-40.894 18.412a31.943 31.943 0 0 0-2.208 11.687c0 17.703 14.351 32.054 32.054 32.054s32.054-14.351 32.054-32.054c0-13.821-8.747-25.598-21.006-30.099z"/><path fill="#6E4224" d="m204.311 196.326-2.028.913a31.895 31.895 0 0 1 4.67 16.664c0 17.703-14.351 32.054-32.054 32.054-2.671 0-5.263-.332-7.743-.947 5.812 8.149 15.336 13.469 26.108 13.469 17.703 0 32.054-14.351 32.054-32.054-.001-13.821-8.748-25.598-21.007-30.099z"/><path fill="#8A532D" d="m307.689 196.326 40.894 18.412a31.943 31.943 0 0 1 2.208 11.687c0 17.703-14.351 32.054-32.054 32.054-17.703 0-32.054-14.351-32.054-32.054 0-13.821 8.747-25.598 21.006-30.099z"/><path fill="#6E4224" d="m307.689 196.326 2.028.913a31.895 31.895 0 0 0-4.67 16.664c0 17.703 14.351 32.054 32.054 32.054 2.671 0 5.263-.332 7.743-.947-5.812 8.149-15.336 13.469-26.108 13.469-17.703 0-32.054-14.351-32.054-32.054.001-13.821 8.748-25.598 21.007-30.099z"/><path fill="#8A532D" d="M186.063 422.932a7.095 7.095 0 0 1-5.556-11.501c25.577-32.283 36.139-66.267 31.392-101.007-3.561-26.062-14.876-42.91-14.99-43.077-2.203-3.233-1.378-7.646 1.85-9.856a7.086 7.086 0 0 1 9.848 1.823c.533.774 13.097 19.287 17.249 48.455 3.813 26.789.972 68.047-34.227 112.475a7.082 7.082 0 0 1-5.566 2.688zM326.092 422.932a7.08 7.08 0 0 1-5.566-2.689c-35.199-44.428-38.041-85.686-34.227-112.475 4.153-29.167 16.716-47.681 17.249-48.455a7.095 7.095 0 0 1 11.696 8.036c-.199.294-11.441 17.113-14.988 43.074-4.747 34.74 5.816 68.724 31.392 101.007a7.094 7.094 0 0 1-1.155 9.967 7.064 7.064 0 0 1-4.401 1.535z"/><path fill="#8A532D" d="M198.759 258.067c-.579.397-1.078.386-1.499 1.386h11.013c-2.303-3.001-6.442-3.493-9.514-1.386z"/><path fill="#6E4224" d="M208.273 258.92H197.26c-1.924 2.504-2.158 5.779-.351 8.431.065.095 3.722 5.759 7.528 14.942h15.186c-4.984-14.191-10.661-22.461-11.016-22.975-.105-.153-.219-.398-.334-.398z"/><path fill="#8A532D" d="M313.416 258.069c-3.077-2.118-7.226-1.617-9.533 1.383h11.025c-.42-1-.916-.986-1.492-1.383z"/><path fill="#6E4224" d="M314.907 258.92h-11.025c-.115 0-.229.245-.334.398-.355.515-6.032 8.785-11.016 22.975h15.185c3.781-9.182 7.415-14.773 7.527-14.939 1.817-2.65 1.588-5.93-.337-8.434z"/><path fill="#8A532D" d="M291.894 316.452h-72.623c-3.919 0-7.095-3.081-7.095-7s3.177-7 7.095-7h72.623c3.919 0 7.095 3.081 7.095 7s-3.176 7-7.095 7z"/><path fill="#FFD161" d="M354.618 273.98H157.382c-6.476 0-11.726-5.25-11.726-11.726 0-6.476 5.25-11.726 11.726-11.726h197.235c6.476 0 11.726 5.25 11.726 11.726 0 6.476-5.249 11.726-11.725 11.726zM154 323.72v-5.926c0-4.195-3.428-7.341-7.622-7.341H72.431c-4.195 0-7.431 3.147-7.431 7.341v5.926c0 .325-.137.733-.097.733h89.003c.04-.001.094-.408.094-.733z"/><path fill="#FFB561" d="M64.903 324.452c.472 4 3.659 7 7.528 7h73.947c3.87 0 7.057-3 7.528-7H64.903z"/><path fill="#8A532D" d="M50.89 422.932a4.674 4.674 0 0 1-2.977-8.277c.097-.08 9.803-8.192 17.481-21.461 10.051-17.37 12.088-35.035 6.055-52.503a4.672 4.672 0 0 1 2.891-5.942 4.669 4.669 0 0 1 5.942 2.891c6.895 19.965 4.487 40.894-6.966 60.522-8.536 14.629-19.018 23.342-19.46 23.706a4.657 4.657 0 0 1-2.966 1.064zM150.912 422.932a4.655 4.655 0 0 1-2.967-1.065c-.442-.364-10.924-9.077-19.46-23.706-11.452-19.628-13.861-40.556-6.966-60.522a4.669 4.669 0 0 1 5.942-2.891 4.671 4.671 0 0 1 2.891 5.942c-14.515 42.029 23.149 73.646 23.531 73.96a4.675 4.675 0 0 1-2.971 8.282z"/><g fill="#6E4224"><path d="M71.392 337.83a4.647 4.647 0 0 0 .057 2.861 63.058 63.058 0 0 1 2.155 7.821H83.1a70.692 70.692 0 0 0-2.755-10.681h-8.953zM130.353 340.69a4.647 4.647 0 0 0 .057-2.861h-8.954a70.723 70.723 0 0 0-2.755 10.681h9.506a62.052 62.052 0 0 1 2.146-7.82z"/></g><path fill="#8A532D" d="M149.688 341.452H59.565c-2.54 0-4.728-1.598-5.234-4.087L30.967 222.371c-.587-2.891 1.28-5.662 4.171-6.248 2.891-.587 5.71 1.454 6.296 4.344l22.497 110.985h85.757c2.949 0 5.341 2.051 5.341 5s-2.392 5-5.341 5z"/><path fill="#FFD161" d="M358 323.72v-5.926c0-4.195 3.428-7.341 7.622-7.341h73.947c4.195 0 7.431 3.147 7.431 7.341v5.926c0 .325.137.733.097.733h-89.003c-.04-.001-.094-.408-.094-.733z"/><path fill="#FFB561" d="M447.097 324.452c-.472 4-3.659 7-7.528 7h-73.947c-3.87 0-7.057-3-7.528-7h89.003z"/><path fill="#8A532D" d="M461.11 422.932a4.674 4.674 0 0 0 2.977-8.277c-.097-.08-9.803-8.192-17.481-21.461-10.051-17.37-12.088-35.035-6.055-52.503a4.672 4.672 0 0 0-2.891-5.942 4.669 4.669 0 0 0-5.942 2.891c-6.895 19.965-4.487 40.894 6.966 60.522 8.536 14.629 19.018 23.342 19.46 23.706a4.657 4.657 0 0 0 2.966 1.064zM361.088 422.932a4.655 4.655 0 0 0 2.967-1.065c.442-.364 10.924-9.077 19.46-23.706 11.452-19.628 13.861-40.556 6.966-60.522a4.669 4.669 0 0 0-5.942-2.891 4.671 4.671 0 0 0-2.891 5.942c14.515 42.029-23.149 73.646-23.531 73.96a4.674 4.674 0 0 0 2.971 8.282z"/><g fill="#6E4224"><path d="M440.608 337.83a4.647 4.647 0 0 1-.057 2.861 63.058 63.058 0 0 0-2.155 7.821H428.9a70.692 70.692 0 0 1 2.755-10.681h8.953zM381.647 340.69a4.647 4.647 0 0 1-.057-2.861h8.954a70.723 70.723 0 0 1 2.755 10.681h-9.506a62.052 62.052 0 0 0-2.146-7.82z"/></g><g><path fill="#8A532D" d="M362.312 341.452h90.123c2.54 0 4.728-1.598 5.234-4.087l23.365-114.995c.587-2.891-1.28-5.662-4.171-6.248-2.891-.587-5.71 1.454-6.296 4.344L448.07 331.451h-85.757c-2.949 0-5.341 2.051-5.341 5s2.391 5.001 5.34 5.001z"/></g></g></svg>